<?xml version="1.0" encoding="utf-8"?>
<!-- Generator: Adobe Illustrator 15.1.0, SVG Export Plug-In . SVG Version: 6.00 Build 0)  -->
<!DOCTYPE svg PUBLIC "-//W3C//DTD SVG 1.1//EN" "http://www.w3.org/Graphics/SVG/1.1/DTD/svg11.dtd">
<svg version="1.1" id="Layer_1" xmlns="http://www.w3.org/2000/svg" xmlns:xlink="http://www.w3.org/1999/xlink" x="0px" y="0px"
	 width="266px" height="42px" viewBox="0 0 266 42" enable-background="new 0 0 266 42" xml:space="preserve">
<g>
	<path fill="#FFFFFF" d="M27.563,27.226c-0.009-1.164-0.009-2.332-0.006-3.498l0.001-1.48c2.962-0.441,5.734-2.142,7.441-4.569
		c1.602-2.22,2.325-5.057,1.988-7.781c-0.291-2.636-1.61-5.178-3.621-6.976c-1.796-1.625-4.1-2.624-6.48-2.81
		c-2.558-0.224-5.199,0.465-7.241,1.892c-2.747,1.841-4.556,4.917-4.837,8.232l-0.013,0.182c-0.049,0.61-0.109,1.369,0.399,1.894
		c0.29,0.336,0.729,0.528,1.204,0.528c0.455,0,0.885-0.179,1.159-0.476c0.446-0.403,0.472-0.975,0.494-1.477
		c0.007-0.154,0.014-0.306,0.034-0.462c0.262-2.922,2.292-5.562,5.054-6.573c2.05-0.777,4.489-0.637,6.402,0.379
		c2.166,1.093,3.755,3.278,4.14,5.704c0.239,1.482,0.068,2.959-0.493,4.278c-0.954,2.375-3.192,4.226-5.707,4.714
		c-0.424,0.092-0.868,0.127-1.297,0.161c-0.174,0.012-0.343,0.024-0.514,0.041c-0.811,0.079-1.444,0.868-1.389,1.702
		c-0.01,1.289-0.008,2.582-0.007,3.876c0.001,0.851,0.004,1.704,0,2.554C16.11,27.474,7.993,28.665,0.11,30.821L0,30.851l0.909,3.33
		l0.111-0.028c8.455-2.313,17.185-3.486,25.95-3.486c8.765,0,17.496,1.173,25.95,3.486l0.111,0.028l0.91-3.328l-0.11-0.031
		C45.276,28.481,36.439,27.275,27.563,27.226z"/>
	<rect x="63.843" fill="#FFFFFF" width="3.979" height="33.396"/>
	<path fill="#FFFFFF" d="M93.1,29.794c-0.106-0.436-0.158-1.124-0.158-2.057V15.292c0-1.404-0.274-2.541-0.798-3.411
		c-0.529-0.875-1.231-1.555-2.105-2.036c-0.878-0.487-1.842-0.806-2.917-0.96c-1.085-0.159-2.166-0.231-3.252-0.231
		c-1.348,0-2.625,0.14-3.838,0.423c-1.225,0.28-2.295,0.739-3.228,1.382c-0.943,0.635-1.686,1.473-2.247,2.503
		c-0.56,1.025-0.879,2.285-0.939,3.783h3.976c0.093-1.777,0.701-2.986,1.831-3.624c1.119-0.644,2.524-0.958,4.201-0.958
		c0.622,0,1.26,0.046,1.897,0.143c0.634,0.087,1.219,0.279,1.726,0.554c0.515,0.284,0.945,0.689,1.272,1.214
		c0.321,0.537,0.49,1.238,0.49,2.107c0,0.75-0.221,1.32-0.66,1.708c-0.441,0.392-1.026,0.685-1.775,0.889
		c-0.751,0.205-1.617,0.354-2.596,0.477c-0.979,0.101-2.025,0.265-3.111,0.485c-1.037,0.183-2.032,0.426-3.018,0.729
		c-0.978,0.292-1.861,0.703-2.616,1.234c-0.765,0.533-1.38,1.23-1.851,2.104c-0.465,0.877-0.704,1.994-0.704,3.371
		c0,1.207,0.214,2.246,0.633,3.109c0.427,0.854,0.996,1.557,1.705,2.102c0.729,0.549,1.567,0.951,2.555,1.197
		c0.98,0.248,2.018,0.369,3.106,0.369c1.683,0,3.255-0.292,4.703-0.891c1.449-0.586,2.725-1.544,3.808-2.848
		c0,1.304,0.306,2.262,0.914,2.848c0.604,0.599,1.425,0.891,2.456,0.891c1.188,0,2.133-0.211,2.851-0.651v-3.087
		c-0.426,0.15-0.839,0.225-1.216,0.225C93.579,30.44,93.211,30.229,93.1,29.794z M88.967,24.976c0,0.562-0.146,1.16-0.428,1.799
		c-0.278,0.643-0.721,1.229-1.31,1.781c-0.599,0.546-1.362,0.997-2.296,1.355c-0.93,0.358-2.052,0.531-3.357,0.531
		c-0.623,0-1.223-0.055-1.788-0.18c-0.556-0.125-1.039-0.326-1.469-0.608c-0.413-0.278-0.766-0.651-1.028-1.099
		c-0.269-0.45-0.403-1.007-0.403-1.658c0-0.758,0.134-1.381,0.403-1.877c0.263-0.496,0.615-0.906,1.052-1.236
		c0.437-0.332,0.955-0.589,1.543-0.774c0.596-0.19,1.219-0.342,1.866-0.476c0.656-0.115,1.337-0.222,2.037-0.297
		c0.704-0.076,1.371-0.168,1.992-0.277c0.621-0.118,1.214-0.246,1.774-0.395c0.564-0.164,1.034-0.381,1.413-0.656v4.066H88.967z"/>
	<path fill="#FFFFFF" d="M115.159,22.867c0,1.091-0.156,2.095-0.447,3.019c-0.301,0.922-0.737,1.727-1.335,2.406
		c-0.592,0.693-1.33,1.222-2.22,1.589c-0.89,0.38-1.946,0.56-3.163,0.56c-1.522,0-2.728-0.431-3.603-1.306
		c-0.873-0.872-1.305-2.051-1.305-3.55V9.209h-3.979V25.11c0,1.314,0.136,2.507,0.396,3.581c0.268,1.081,0.729,2.002,1.382,2.784
		c0.653,0.775,1.518,1.389,2.58,1.828c1.056,0.438,2.384,0.652,3.973,0.652c1.744,0,3.277-0.364,4.606-1.081
		c1.324-0.714,2.406-1.817,3.25-3.313h0.091v3.834h3.742V9.209h-3.971v13.658H115.159z"/>
	<path fill="#FFFFFF" d="M143.357,11.127c-0.656-0.783-1.504-1.391-2.57-1.819c-1.061-0.441-2.39-0.655-3.979-0.655
		c-1.741,0-3.279,0.351-4.605,1.077c-1.326,0.709-2.41,1.821-3.247,3.316h-0.103V9.209h-3.739v24.186h3.979V19.737
		c0-1.094,0.146-2.1,0.44-3.016c0.303-0.918,0.742-1.723,1.333-2.412c0.596-0.686,1.335-1.212,2.228-1.592
		c0.891-0.375,1.936-0.558,3.156-0.558c1.525,0,2.72,0.435,3.595,1.309c0.876,0.874,1.315,2.06,1.315,3.555v16.371h3.976V17.493
		c0-1.313-0.137-2.502-0.394-3.582C144.477,12.838,144.017,11.91,143.357,11.127z"/>
	<path fill="#FFFFFF" d="M168.755,12.438h-0.093c-0.433-0.717-0.977-1.313-1.613-1.797c-0.633-0.49-1.315-0.875-2.027-1.172
		c-0.718-0.292-1.443-0.505-2.159-0.628c-0.717-0.127-1.384-0.187-2.007-0.187c-1.846,0-3.457,0.333-4.846,1.004
		c-1.383,0.669-2.544,1.58-3.465,2.733c-0.915,1.157-1.602,2.489-2.053,4.001c-0.451,1.518-0.67,3.126-0.67,4.848
		c0,1.705,0.22,3.328,0.69,4.857c0.472,1.528,1.166,2.877,2.085,4.05c0.907,1.173,2.072,2.097,3.459,2.784
		c1.386,0.685,3.019,1.023,4.895,1.023c1.674,0,3.224-0.303,4.627-0.909c1.407-0.614,2.43-1.583,3.084-2.93h0.093v3.28h3.979V0
		h-3.979V12.438L168.755,12.438z M168.498,24.65c-0.264,1.081-0.689,2.069-1.288,2.923c-0.588,0.859-1.351,1.548-2.291,2.081
		c-0.933,0.533-2.073,0.786-3.403,0.786c-1.288,0-2.41-0.244-3.352-0.74c-0.955-0.497-1.728-1.178-2.348-2.015
		c-0.61-0.841-1.061-1.798-1.35-2.874c-0.294-1.076-0.453-2.17-0.453-3.293c0-1.19,0.134-2.345,0.38-3.467
		c0.252-1.122,0.662-2.117,1.223-2.994c0.558-0.871,1.295-1.571,2.223-2.099c0.913-0.539,2.057-0.799,3.43-0.799
		c1.375,0,2.543,0.255,3.512,0.776c0.964,0.511,1.747,1.184,2.361,2.028c0.61,0.844,1.053,1.817,1.337,2.922
		c0.275,1.109,0.41,2.254,0.41,3.435C168.892,22.452,168.766,23.553,168.498,24.65z"/>
	<path fill="#FFFFFF" d="M186.109,9.958c-1.402,0.936-2.592,2.386-3.551,4.352h-0.098v-5.1h-3.74v24.186h3.979V22.641
		c0-1.532,0.154-2.903,0.469-4.123c0.309-1.211,0.807-2.244,1.495-3.087c0.679-0.837,1.595-1.479,2.714-1.915
		c1.117-0.438,2.474-0.658,4.069-0.658V8.655C189.3,8.588,187.513,9.029,186.109,9.958z"/>
	<path fill="#FFFFFF" d="M212.446,31.548c-0.221-0.17-0.382-0.396-0.472-0.684c-0.09-0.271-0.146-0.584-0.156-0.924
		c-0.027-0.347-0.035-0.686-0.035-1.033V15.044c0-1.239-0.238-2.268-0.719-3.08c-0.486-0.81-1.122-1.449-1.912-1.915
		c-0.801-0.465-1.703-0.794-2.699-0.972c-0.993-0.191-2.021-0.283-3.084-0.283c-2.838,0-5.043,0.661-6.619,1.989
		c-1.571,1.322-2.423,3.308-2.556,5.958h1.789c0.118-2.086,0.847-3.678,2.176-4.771c1.316-1.096,3.062-1.636,5.21-1.636
		c1.37,0,2.494,0.193,3.363,0.583c0.881,0.39,1.556,0.852,2.045,1.385c0.482,0.525,0.811,1.047,1.003,1.561
		c0.187,0.515,0.274,0.912,0.274,1.195c0,0.993-0.062,1.79-0.182,2.363c-0.124,0.577-0.459,1.043-0.977,1.402
		c-0.539,0.36-1.354,0.621-2.467,0.792c-1.107,0.171-2.66,0.325-4.652,0.445c-1.004,0.091-2.018,0.251-3.062,0.469
		c-1.048,0.221-1.999,0.583-2.855,1.098c-0.858,0.515-1.556,1.22-2.103,2.106c-0.548,0.895-0.814,2.031-0.814,3.441
		c0,1.274,0.195,2.346,0.6,3.193c0.406,0.867,0.978,1.562,1.711,2.09c0.729,0.53,1.594,0.916,2.575,1.146
		c0.984,0.23,2.035,0.348,3.158,0.348c1.148,0,2.212-0.144,3.174-0.421c0.972-0.276,1.844-0.671,2.604-1.172
		c0.76-0.495,1.402-1.071,1.933-1.704c0.532-0.639,0.933-1.316,1.226-2.029h0.084v1.252c0,0.506,0.047,0.964,0.121,1.389
		c0.076,0.419,0.224,0.786,0.443,1.093c0.218,0.318,0.542,0.565,0.962,0.747c0.421,0.193,0.987,0.283,1.706,0.283
		c0.244,0,0.49-0.012,0.729-0.049c0.236-0.029,0.478-0.074,0.718-0.141v-1.541c-0.556,0.099-0.995,0.14-1.306,0.14
		C212.971,31.804,212.661,31.726,212.446,31.548z M210.007,24.227c0,0.312-0.086,0.913-0.258,1.799
		c-0.167,0.892-0.562,1.815-1.187,2.765c-0.627,0.953-1.532,1.791-2.715,2.531c-1.188,0.729-2.796,1.092-4.817,1.092
		c-2.121,0-3.706-0.504-4.747-1.52c-1.049-1.014-1.568-2.252-1.568-3.715c0-1.813,0.571-3.134,1.705-3.961
		c1.139-0.82,2.766-1.361,4.891-1.609c0.868-0.121,1.741-0.215,2.615-0.285c0.876-0.056,1.719-0.138,2.504-0.234
		c0.792-0.089,1.506-0.237,2.13-0.439c0.624-0.205,1.107-0.506,1.444-0.91v4.486H210.007z"/>
	<path fill="#FFFFFF" d="M236.644,12.582c-0.88-1.154-2.01-2.075-3.361-2.765c-1.354-0.682-2.958-1.022-4.798-1.022
		c-1.312,0-2.469,0.2-3.48,0.603c-1.014,0.409-1.875,0.915-2.596,1.521c-0.724,0.613-1.295,1.271-1.738,1.988
		c-0.436,0.718-0.746,1.372-0.925,1.974h-0.145V9.356h-1.732V42h1.732l0.003-13.614h0.087c0.723,1.971,1.859,3.385,3.423,4.263
		c1.562,0.872,3.348,1.308,5.35,1.308c1.84,0,3.445-0.305,4.807-0.938c1.359-0.624,2.48-1.49,3.371-2.595
		c0.892-1.097,1.554-2.422,1.999-3.951c0.438-1.525,0.659-3.211,0.659-5.049c0-1.684-0.221-3.289-0.659-4.823
		C238.197,15.074,237.539,13.737,236.644,12.582z M236.978,25.656c-0.36,1.327-0.909,2.485-1.644,3.479
		c-0.738,1.003-1.67,1.8-2.81,2.384c-1.145,0.597-2.498,0.893-4.057,0.893c-1.689,0-3.104-0.299-4.252-0.911
		c-1.146-0.606-2.039-1.422-2.716-2.431c-0.672-1.015-1.156-2.181-1.43-3.504c-0.278-1.33-0.418-2.707-0.418-4.143
		c0-1.431,0.148-2.819,0.462-4.138c0.317-1.329,0.823-2.509,1.529-3.54c0.708-1.026,1.618-1.846,2.739-2.473
		c1.127-0.624,2.49-0.937,4.088-0.937c1.625,0,3.008,0.321,4.15,0.958c1.138,0.641,2.07,1.481,2.784,2.53
		c0.72,1.042,1.245,2.227,1.594,3.551c0.342,1.324,0.521,2.672,0.521,4.048C237.517,22.925,237.338,24.325,236.978,25.656z"/>
	<path fill="#FFFFFF" d="M264.646,16.6c-0.439-1.525-1.103-2.863-1.989-4.018c-0.889-1.154-2.014-2.075-3.372-2.765
		c-1.356-0.682-2.956-1.022-4.799-1.022c-1.298,0-2.464,0.2-3.478,0.603c-1.018,0.409-1.875,0.915-2.596,1.521
		c-0.726,0.613-1.29,1.271-1.731,1.988c-0.431,0.718-0.747,1.372-0.939,1.974h-0.137V9.356h-1.728V42h1.728V28.386h0.093
		c0.72,1.971,1.856,3.385,3.424,4.263c1.559,0.872,3.347,1.308,5.344,1.308c1.84,0,3.452-0.305,4.806-0.938
		c1.363-0.624,2.478-1.49,3.38-2.595c0.892-1.097,1.553-2.422,1.993-3.951c0.434-1.525,0.651-3.211,0.651-5.049
		C265.296,19.739,265.079,18.134,264.646,16.6z M262.98,25.656c-0.359,1.327-0.902,2.485-1.646,3.479
		c-0.727,1.003-1.667,1.8-2.801,2.384c-1.153,0.597-2.508,0.893-4.065,0.893c-1.687,0-3.107-0.299-4.252-0.911
		c-1.131-0.606-2.039-1.422-2.713-2.431c-0.669-1.015-1.147-2.181-1.438-3.504c-0.273-1.33-0.416-2.707-0.416-4.143
		c0-1.431,0.159-2.819,0.471-4.138c0.317-1.329,0.823-2.509,1.521-3.54c0.711-1.026,1.624-1.846,2.745-2.473
		c1.127-0.624,2.491-0.937,4.082-0.937c1.628,0,3.006,0.321,4.148,0.958c1.142,0.641,2.076,1.481,2.792,2.53
		c0.725,1.042,1.25,2.227,1.604,3.551c0.335,1.324,0.513,2.672,0.513,4.048C263.523,22.925,263.342,24.325,262.98,25.656z"/>
</g>
</svg>
