<svg id="Layer_1" data-name="Layer 1" xmlns="http://www.w3.org/2000/svg" viewBox="0 0 271.77 56.69"><defs><style>.cls-1{fill:#3abaf1;}</style></defs><title>Website_Vectors_01</title><path class="cls-1" d="M36.76,14a10.84,10.84,0,0,0-13.34-.89,10.87,10.87,0,0,0-4.7,8A2.36,2.36,0,0,0,19,23a1.41,1.41,0,0,0,2,0,2.63,2.63,0,0,0,.45-1.78A8,8,0,1,1,31.12,30a15.14,15.14,0,0,1-1.83.2,1.39,1.39,0,0,0-1.17,1.46c0,2.13,0,4.26,0,6.39h2.81c0-1.73,0-3.46,0-5.18a10.9,10.9,0,0,0,7.43-4.47A10.84,10.84,0,0,0,36.76,14Z"/><path class="cls-1" d="M31.08,38.2H28V38q0-1.23,0-2.45c0-1.31,0-2.63,0-3.94A1.53,1.53,0,0,1,29.28,30l0.51,0a9.28,9.28,0,0,0,1.29-.16,7.93,7.93,0,0,0,5.71-4.72,7.79,7.79,0,0,0,.5-4.28,7.88,7.88,0,0,0-15.62.49c0,0.15,0,.31,0,0.46a1.88,1.88,0,0,1-.47,1.42,1.52,1.52,0,0,1-1.11.46,1.49,1.49,0,0,1-1.14-.5,2.23,2.23,0,0,1-.38-1.83V21.14a11,11,0,0,1,11.91-10,10.85,10.85,0,0,1,6.39,2.77,11,11,0,0,1,1.61,14.55A11.1,11.1,0,0,1,31.08,33v1.31c0,1.25,0,2.49,0,3.74V38.2Zm-2.81-.32h2.49c0-1.19,0-2.39,0-3.58V32.72l0.14,0a10.78,10.78,0,0,0,7.32-4.41,10.68,10.68,0,1,0-19.34-7.13v0.18a2,2,0,0,0,.3,1.59,1.18,1.18,0,0,0,.91.4A1.21,1.21,0,0,0,21,23a1.6,1.6,0,0,0,.37-1.21c0-.16,0-0.33,0-0.48a8.2,8.2,0,0,1,16.25-.5,8.1,8.1,0,0,1-.52,4.45,8.25,8.25,0,0,1-5.94,4.91,9.46,9.46,0,0,1-1.34.17l-0.51,0a1.23,1.23,0,0,0-1,1.3c0,1.32,0,2.64,0,3.95Q28.28,36.74,28.28,37.89Z"/><path class="cls-1" d="M4.78,44.76L3.94,41.68a100.92,100.92,0,0,1,53.26,0l-0.84,3.08A97.72,97.72,0,0,0,4.78,44.76Z"/><path class="cls-1" d="M4.72,44.86L3.84,41.62l0.08,0a101,101,0,0,1,53.3,0l0.08,0-0.89,3.24-0.08,0a97.65,97.65,0,0,0-51.53,0Zm25.84-3.64a97.81,97.81,0,0,1,25.73,3.45l0.8-2.93A100.83,100.83,0,0,0,4,41.73l0.8,2.93A97.82,97.82,0,0,1,30.56,41.22Z"/><path class="cls-1" d="M67.15,11H71.1V44.12H67.15V11Z"/><path class="cls-1" d="M98.49,44a5.38,5.38,0,0,1-2.83.65,3.31,3.31,0,0,1-2.44-.88A3.8,3.8,0,0,1,92.31,41a9.58,9.58,0,0,1-3.78,2.83,12.13,12.13,0,0,1-4.67.88,12.54,12.54,0,0,1-3.08-.37,7,7,0,0,1-2.54-1.19A5.92,5.92,0,0,1,76.56,41a7,7,0,0,1-.63-3.09,7.05,7.05,0,0,1,.7-3.35,5.91,5.91,0,0,1,1.84-2.09,9,9,0,0,1,2.6-1.23,25,25,0,0,1,3-.72c1.08-.22,2.12-0.38,3.09-0.48a18.78,18.78,0,0,0,2.58-.48,4.28,4.28,0,0,0,1.76-.88A2.15,2.15,0,0,0,92.14,27a4,4,0,0,0-.49-2.09,3.39,3.39,0,0,0-1.26-1.2,5,5,0,0,0-1.71-.55A12.7,12.7,0,0,0,86.79,23a8.28,8.28,0,0,0-4.17.95,4,4,0,0,0-1.82,3.6H76.85a8.48,8.48,0,0,1,.93-3.75A7,7,0,0,1,80,21.35,9.17,9.17,0,0,1,83.22,20,16.71,16.71,0,0,1,87,19.56a22.23,22.23,0,0,1,3.23.23,8.37,8.37,0,0,1,2.9,1,5.5,5.5,0,0,1,2.09,2A6.49,6.49,0,0,1,96,26.15V38.51a9.68,9.68,0,0,0,.16,2,1,1,0,0,0,1.09.64A3.65,3.65,0,0,0,98.49,41V44Zm-6.4-12.3a4.49,4.49,0,0,1-1.4.65c-0.56.15-1.14,0.27-1.76,0.39s-1.28.2-2,.28-1.37.18-2,.29-1.26.29-1.85,0.47a5.06,5.06,0,0,0-1.53.77,3.59,3.59,0,0,0-1,1.23,3.85,3.85,0,0,0-.4,1.86,3.16,3.16,0,0,0,.4,1.65,3.31,3.31,0,0,0,1,1.09A4.31,4.31,0,0,0,83,41a8.12,8.12,0,0,0,1.77.18,9.34,9.34,0,0,0,3.33-.53,7.18,7.18,0,0,0,2.28-1.35,5.33,5.33,0,0,0,1.3-1.77,4.41,4.41,0,0,0,.43-1.79v-4Z"/><path class="cls-1" d="M122,44.12h-3.71v-3.8h-0.09A8.16,8.16,0,0,1,115,43.6a9.47,9.47,0,0,1-4.57,1.07,10.36,10.36,0,0,1-3.94-.65,6.57,6.57,0,0,1-2.56-1.81,6.84,6.84,0,0,1-1.37-2.76,15,15,0,0,1-.39-3.55V20.12h3.95V36.37a4.74,4.74,0,0,0,1.29,3.52,4.83,4.83,0,0,0,3.57,1.3,8,8,0,0,0,3.14-.56,5.72,5.72,0,0,0,2.21-1.58,6.71,6.71,0,0,0,1.32-2.39,9.88,9.88,0,0,0,.45-3V20.12H122v24Z"/><path class="cls-1" d="M128,20.12h3.71v3.81h0.1A8.1,8.1,0,0,1,135,20.63a9.37,9.37,0,0,1,4.57-1.07,10.35,10.35,0,0,1,3.95.65,6.37,6.37,0,0,1,2.55,1.8,6.79,6.79,0,0,1,1.37,2.76,15.27,15.27,0,0,1,.39,3.55V44.12h-3.95V27.87a4.77,4.77,0,0,0-1.3-3.53A4.83,4.83,0,0,0,139,23a8,8,0,0,0-3.13.55,6,6,0,0,0-2.21,1.58,6.91,6.91,0,0,0-1.32,2.39,9.71,9.71,0,0,0-.44,3V44.12H128v-24Z"/><path class="cls-1" d="M175.23,44.12h-4V40.87h-0.09a5.9,5.9,0,0,1-3.06,2.91,11.46,11.46,0,0,1-4.59.9,10.83,10.83,0,0,1-4.86-1,9.8,9.8,0,0,1-3.43-2.76,12.28,12.28,0,0,1-2.07-4,16.32,16.32,0,0,1-.69-4.82,16.74,16.74,0,0,1,.67-4.81,11.71,11.71,0,0,1,2-4,9.75,9.75,0,0,1,3.44-2.71,10.93,10.93,0,0,1,4.81-1,11.25,11.25,0,0,1,2,.19,10.09,10.09,0,0,1,2.14.62,8.72,8.72,0,0,1,2,1.16,6.24,6.24,0,0,1,1.6,1.78h0.09V11h4V44.12ZM156.65,32.33a12.34,12.34,0,0,0,.45,3.27,8.66,8.66,0,0,0,1.34,2.85,6.75,6.75,0,0,0,2.33,2,7,7,0,0,0,3.32.73,6.49,6.49,0,0,0,5.65-2.84,8.61,8.61,0,0,0,1.28-2.9,14,14,0,0,0,.39-3.3,14.27,14.27,0,0,0-.41-3.41,8.49,8.49,0,0,0-1.33-2.9,6.72,6.72,0,0,0-2.34-2,7.23,7.23,0,0,0-3.48-.77,6.6,6.6,0,0,0-3.4.79,6.26,6.26,0,0,0-2.21,2.08,9.16,9.16,0,0,0-1.21,3A16.06,16.06,0,0,0,156.65,32.33Z"/><path class="cls-1" d="M181.17,20.12h3.71v5.06H185a10.67,10.67,0,0,1,3.52-4.32,8.93,8.93,0,0,1,5.3-1.29v4.17a11.06,11.06,0,0,0-4,.65,6.37,6.37,0,0,0-2.69,1.9,7.81,7.81,0,0,0-1.49,3.06,16.58,16.58,0,0,0-.46,4.09V44.12h-3.95v-24Z"/><path class="cls-1" d="M214,39.67c0,0.34,0,.68,0,1a3.3,3.3,0,0,0,.16.92,1.34,1.34,0,0,0,.47.68,1.42,1.42,0,0,0,.93.25,7.86,7.86,0,0,0,1.29-.14v1.53a5.39,5.39,0,0,1-.71.14,4.9,4.9,0,0,1-.72,0,4.17,4.17,0,0,1-1.69-.28,2.16,2.16,0,0,1-1-.74,2.68,2.68,0,0,1-.44-1.08,7.78,7.78,0,0,1-.12-1.38V39.39h-0.08a7.63,7.63,0,0,1-1.21,2A8.72,8.72,0,0,1,209,43.1a9.19,9.19,0,0,1-2.58,1.16,11.31,11.31,0,0,1-3.15.42,13.81,13.81,0,0,1-3.13-.34,7.12,7.12,0,0,1-2.56-1.14,5.26,5.26,0,0,1-1.69-2.07,7.34,7.34,0,0,1-.6-3.17,6.41,6.41,0,0,1,.81-3.42,6.14,6.14,0,0,1,2.08-2.09A9.14,9.14,0,0,1,201,31.35a27.23,27.23,0,0,1,3-.47c2-.12,3.52-0.27,4.62-0.44a6.21,6.21,0,0,0,2.45-.79,2.24,2.24,0,0,0,1-1.39,12.27,12.27,0,0,0,.18-2.35,3.83,3.83,0,0,0-.27-1.18,4.83,4.83,0,0,0-1-1.55,6,6,0,0,0-2-1.37,8.23,8.23,0,0,0-3.34-.58,7.84,7.84,0,0,0-5.17,1.62,6.27,6.27,0,0,0-2.16,4.73h-1.78a7.83,7.83,0,0,1,2.54-5.91,9.88,9.88,0,0,1,6.57-2,16.07,16.07,0,0,1,3.06.28,8.16,8.16,0,0,1,2.68,1,5.38,5.38,0,0,1,1.9,1.9,5.91,5.91,0,0,1,.71,3.06V39.67Zm-1.76-9.1a3.06,3.06,0,0,1-1.43.9,11,11,0,0,1-2.11.44c-0.78.1-1.62,0.18-2.49,0.23s-1.73.16-2.6,0.28a10.34,10.34,0,0,0-4.85,1.6A4.54,4.54,0,0,0,197,37.95a4.92,4.92,0,0,0,1.56,3.69,6.52,6.52,0,0,0,4.71,1.51,9.08,9.08,0,0,0,4.78-1.09,8.45,8.45,0,0,0,2.69-2.51A7.63,7.63,0,0,0,212,36.81a11.65,11.65,0,0,0,.25-1.79V30.57Z"/><path class="cls-1" d="M221.74,25.74h0.15a8.54,8.54,0,0,1,.92-2,8.34,8.34,0,0,1,1.72-2,9.51,9.51,0,0,1,2.58-1.51,9.26,9.26,0,0,1,3.46-.6,10.48,10.48,0,0,1,4.76,1,9.68,9.68,0,0,1,3.34,2.74,11.9,11.9,0,0,1,2,4,17.47,17.47,0,0,1,.65,4.79,18.25,18.25,0,0,1-.65,5,11.07,11.07,0,0,1-2,3.92,9.12,9.12,0,0,1-3.35,2.58,11.18,11.18,0,0,1-4.77.93,10.71,10.71,0,0,1-5.31-1.3,7.62,7.62,0,0,1-3.4-4.23h-0.08V52.66H220V20.26h1.72v5.48Zm8.8,17.4a8.62,8.62,0,0,0,4-.89,7.91,7.91,0,0,0,2.79-2.37A10.39,10.39,0,0,0,239,36.44a16.4,16.4,0,0,0,0-8.22,11.18,11.18,0,0,0-1.58-3.52,8.09,8.09,0,0,0-2.77-2.51,9.37,9.37,0,0,0-8.18,0,8,8,0,0,0-2.72,2.46,10.42,10.42,0,0,0-1.52,3.51,18,18,0,0,0-.46,4.11,20.15,20.15,0,0,0,.41,4.11,9.94,9.94,0,0,0,1.42,3.48,7.28,7.28,0,0,0,2.7,2.41A8.87,8.87,0,0,0,230.54,43.15Z"/><path class="cls-1" d="M247.55,25.74h0.14a9.39,9.39,0,0,1,.93-2,8.31,8.31,0,0,1,1.72-2,9.1,9.1,0,0,1,6-2.11,10.48,10.48,0,0,1,4.76,1,9.7,9.7,0,0,1,3.35,2.74,11.85,11.85,0,0,1,2,4,17.47,17.47,0,0,1,.65,4.79,18.25,18.25,0,0,1-.65,5,10.9,10.9,0,0,1-2,3.92,9.23,9.23,0,0,1-3.36,2.58,11.16,11.16,0,0,1-4.77.93,10.7,10.7,0,0,1-5.31-1.3,7.58,7.58,0,0,1-3.4-4.23h-0.09V52.66h-1.72V20.26h1.72v5.48Zm8.8,17.4a8.68,8.68,0,0,0,4-.89,7.8,7.8,0,0,0,2.78-2.37,10.12,10.12,0,0,0,1.63-3.45,15.87,15.87,0,0,0,.54-4.2,16.1,16.1,0,0,0-.51-4,11,11,0,0,0-1.59-3.52,8.09,8.09,0,0,0-2.77-2.51,9.35,9.35,0,0,0-8.17,0,8,8,0,0,0-2.72,2.46,10.62,10.62,0,0,0-1.51,3.51,18,18,0,0,0-.46,4.11,20.6,20.6,0,0,0,.41,4.11,10.24,10.24,0,0,0,1.43,3.48,7.37,7.37,0,0,0,2.69,2.41A8.87,8.87,0,0,0,256.35,43.15Z"/></svg>